
        <svg xmlns="http://www.w3.org/2000/svg" xmlns:xlink="http://www.w3.org/1999/xlink" version="1.1" width="3162.259411385315" 
        height="796.0441793899201" viewBox="0 0 3162.259411385315 796.0441793899201">
			
			<g transform="scale(8.112970569265759) translate(10, 10)">
				<defs id="SvgjsDefs4308"><linearGradient id="SvgjsLinearGradient4313"><stop id="SvgjsStop4314" stop-color="#b88746" offset="0"></stop><stop id="SvgjsStop4315" stop-color="#fdf5a6" offset="1"></stop></linearGradient></defs><g id="SvgjsG4309" featureKey="symbolFeature-0" transform="matrix(0.9747694002492264,0,0,0.9747694002492264,-12.081291998747215,-10.148324471412407)" fill="url(#SvgjsLinearGradient4313)"><g xmlns="http://www.w3.org/2000/svg"><g><polygon points="54.644,56.782 35.043,56.782 29.789,76.381 49.394,76.381   "></polygon></g><g><polygon points="29.789,76.381 16.071,76.381 12.394,90.102 26.115,90.102   "></polygon></g><g><polygon points="72.04,43.063 58.319,43.063 54.644,56.782 68.363,56.782   "></polygon></g><g><polygon points="60.892,33.458 51.288,33.458 48.716,43.063 58.319,43.063   "></polygon></g><g><polygon points="78.988,17.134 69.384,17.134 66.81,26.739 76.416,26.739   "></polygon></g><g><polygon points="37.616,47.18 28.013,47.18 25.438,56.782 35.043,56.782   "></polygon></g><g><polygon points="87.511,10.411 80.79,10.411 78.988,17.134 85.71,17.134   "></polygon></g><g><polygon points="80.562,36.341 73.842,36.341 72.04,43.063 78.762,43.063   "></polygon></g><g><polygon points="53.089,26.735 46.37,26.735 44.565,33.458 51.288,33.458   "></polygon></g></g></g><g id="SvgjsG4310" featureKey="nameFeature-0" transform="matrix(2.11171791574217,0,0,2.11171791574217,89.03802262046003,-22.482302981385995)" fill="#ffffff"><path d="M15.88 34.24 c0 4.44 -3.04 6.16 -7.04 6.16 c-4.36 0 -7.08 -1.92 -6.96 -6.56 l3.72 0 c0 1.16 0.04 3.88 3.36 3.88 c1.96 0 3.48 -1 3.48 -3.08 c0 -3.6 -10.08 -3.68 -10.08 -9.72 c0 -2.12 1.28 -5.52 6.96 -5.52 c3.6 0 6.68 1.72 6.4 5.72 l-3.64 0 c0.04 -2.12 -1.08 -3.24 -3.16 -3.24 c-1.76 0 -3.12 0.96 -3.12 2.72 c0 3.56 10.08 3.48 10.08 9.64 z M24.673000000000002 19.8 l0 20.2 l-3.28 0 l0 -20.2 l3.28 0 z M21.193000000000005 14.64 l0 -3.52 l3.68 0 l0 3.52 l-3.68 0 z M45.146 26.28 l-3.4 0 c0.08 -3.32 -1.56 -4.2 -2.8 -4.2 c-2.52 0 -4.24 1.2 -4.24 6.72 c0 6.56 0.84 8.92 4.24 8.92 c0.76 0 3.04 -0.8 2.92 -4.44 l3.44 0 c0.12 5.68 -4.12 7.12 -6.36 7.12 c-4.28 0 -7.68 -1.28 -7.68 -10.2 c0 -5.92 0.68 -10.8 7.68 -10.8 c4.04 0 6.4 2.36 6.2 6.88 z M55.219 11.120000000000001 l0 28.88 l-3.28 0 l0 -28.88 l3.28 0 z M72.052 29.96 c-3.12 0.04 -7.32 -0.24 -7.32 4.04 c0 1.96 0.96 3.72 3.16 3.72 c2 0 4.48 -1.24 4.16 -7.76 z M72.132 40 l0 -2.92 l-0.08 0 c-1 2.32 -2.56 3.32 -5.08 3.32 c-4.28 0 -5.52 -2.76 -5.52 -6.64 c0 -6.12 6 -6.4 10.6 -6.28 c0.08 -2.68 0.12 -5.6 -3.4 -5.6 c-2.2 0 -3.36 1.48 -3.16 3.6 l-3.56 0 c0.16 -4.52 2.56 -6.08 6.84 -6.08 c5.2 0 6.56 2.68 6.56 6.08 l0 9.72 c0 1.6 0.16 3.24 0.4 4.8 l-3.6 0 z M85.965 19.8 l0 3.04 l0.08 0 c1.36 -3.08 3.04 -3.44 6.24 -3.44 l0 3.4 c-0.28 -0.04 -0.6 -0.08 -0.88 -0.12 s-0.56 -0.08 -0.88 -0.08 c-3.64 0 -4.56 2.76 -4.56 5.48 l0 11.92 l-3.28 0 l0 -20.2 l3.28 0 z M99.918 19.8 l0 20.2 l-3.28 0 l0 -20.2 l3.28 0 z M96.438 14.64 l0 -3.52 l3.68 0 l0 3.52 l-3.68 0 z M103.47100000000002 19.8 l3.32 0 l0 -3.88 l3.28 -1.48 l0 5.36 l4.4 0 l0 2.48 l-4.4 0 l0 12.36 c0 1.28 0 2.92 3 2.92 c0.24 0 0.76 -0.08 1.48 -0.16 l0 2.52 c-1.08 0.08 -2.16 0.32 -3.24 0.32 c-3.12 0 -4.52 -1.28 -4.52 -3.6 l0 -14.36 l-3.32 0 l0 -2.48 z M119.62400000000002 19.8 l4.84 16.44 l0.08 0 l4.84 -16.44 l3.56 0 l-9.16 27.84 l-3.4 0 l2.28 -7.64 l-6.84 -20.2 l3.8 0 z"></path></g>
			</g>
		</svg>
	