<svg version="1.0" xmlns="http://www.w3.org/2000/svg"
 width="300.000000pt" height="300.000000pt" viewBox="0 0 300.000000 300.000000"
 preserveAspectRatio="xMidYMid meet">
<g transform="translate(0.000000,300.000000) scale(0.100000,-0.100000)"
fill="#b0adad" stroke="none">
<path d="M713 2874 c-46 -23 -69 -76 -54 -125 6 -21 23 -47 36 -57 23 -18 25
-27 25 -102 0 -124 -6 -120 168 -120 l147 0 -2 -127 -1 -128 -112 -2 c-62 -1
-117 -6 -122 -11 -5 -5 -10 -60 -11 -122 l-2 -112 -128 -1 -127 -2 0 147 c0
174 4 168 -120 168 -75 0 -84 2 -102 25 -10 13 -36 30 -57 36 -110 33 -188
-112 -100 -185 23 -20 42 -26 76 -26 39 0 50 5 77 35 30 32 37 35 89 35 l57 0
0 -150 c0 -140 1 -150 21 -160 12 -7 75 -10 167 -9 l147 2 3 -101 3 -102 -235
0 c-226 0 -235 1 -241 20 -8 26 -55 50 -99 50 -46 0 -93 -40 -102 -87 -21
-109 118 -177 190 -93 l25 30 230 0 231 0 0 -100 0 -100 -231 0 -230 0 -25 30
c-72 84 -211 16 -190 -93 9 -47 56 -87 102 -87 44 0 91 24 99 50 6 19 15 20
241 20 l235 0 -3 -102 -3 -101 -147 2 c-92 1 -155 -2 -167 -9 -20 -10 -21 -20
-21 -160 l0 -150 -59 0 c-55 0 -61 2 -81 30 -75 105 -241 4 -185 -113 23 -50
75 -73 126 -58 21 6 47 23 57 36 18 23 27 25 102 25 124 0 120 -6 120 168 l0
147 127 -2 128 -1 2 -112 c1 -62 6 -117 11 -122 5 -5 60 -10 122 -11 l112 -2
1 -128 2 -127 -147 0 c-174 0 -168 4 -168 -120 0 -75 -2 -84 -25 -102 -13 -10
-30 -36 -36 -57 -33 -110 112 -188 185 -100 20 23 26 42 26 76 0 39 -5 50 -35
77 -32 30 -35 37 -35 89 l0 57 150 0 c140 0 150 1 160 21 7 12 10 75 9 167
l-2 147 101 3 102 3 0 -235 c0 -226 -1 -235 -20 -241 -44 -14 -65 -109 -34
-153 19 -27 65 -52 96 -52 35 0 83 34 97 69 19 44 6 95 -29 125 l-30 25 0 230
0 231 100 0 100 0 0 -231 0 -230 -30 -25 c-84 -72 -16 -211 93 -190 47 9 87
56 87 102 0 44 -24 91 -50 99 -19 6 -20 15 -20 241 l0 235 102 -3 101 -3 -2
-147 c-1 -92 2 -155 9 -167 10 -20 20 -21 160 -21 l150 0 0 -59 c0 -55 -2 -61
-30 -81 -105 -75 -4 -241 113 -185 50 23 73 75 58 126 -6 21 -23 47 -36 57
-23 18 -25 27 -25 102 0 124 6 120 -168 120 l-147 0 2 127 1 128 112 2 c62 1
117 6 122 11 5 5 10 60 11 122 l2 112 128 1 127 2 0 -147 c0 -174 -4 -168 120
-168 75 0 84 -2 102 -25 10 -13 36 -30 57 -36 110 -33 188 112 100 185 -23 20
-42 26 -76 26 -39 0 -50 -5 -77 -35 -30 -32 -37 -35 -89 -35 l-57 0 0 150 c0
140 -1 150 -21 160 -12 7 -75 10 -167 9 l-147 -2 -3 101 -3 102 235 0 c226 0
235 -1 241 -20 14 -44 109 -65 153 -34 27 19 52 65 52 96 0 35 -34 83 -69 97
-44 19 -95 6 -125 -29 l-25 -30 -230 0 -231 0 0 100 0 100 231 0 230 0 25 -30
c72 -84 211 -16 190 93 -9 47 -56 87 -102 87 -44 0 -91 -24 -99 -50 -6 -19
-15 -20 -241 -20 l-235 0 3 102 3 101 147 -2 c92 -1 155 2 167 9 20 10 21 20
21 160 l0 150 57 0 c52 0 59 -3 89 -35 27 -30 38 -35 77 -35 34 0 53 6 76 26
88 73 10 218 -100 185 -21 -6 -47 -23 -57 -36 -18 -23 -27 -25 -102 -25 -124
0 -120 6 -120 -168 l0 -147 -127 2 -128 1 -2 112 c-1 62 -6 117 -11 122 -5 5
-60 10 -122 11 l-112 2 -1 128 -2 127 147 0 c174 0 168 -4 168 120 0 75 2 84
25 102 13 10 30 36 36 57 31 104 -106 186 -180 107 -47 -50 -43 -129 9 -166
28 -20 30 -26 30 -81 l0 -59 -150 0 c-140 0 -150 -1 -160 -21 -7 -12 -10 -75
-9 -167 l2 -147 -101 -3 -102 -3 0 235 c0 226 1 235 20 241 44 14 65 109 34
153 -19 27 -65 52 -96 52 -35 0 -83 -34 -97 -69 -19 -44 -6 -95 29 -125 l30
-25 0 -230 0 -231 -100 0 -100 0 0 231 0 230 30 25 c84 72 16 211 -93 190 -47
-9 -87 -56 -87 -102 0 -44 24 -91 50 -99 19 -6 20 -15 20 -241 l0 -235 -102 3
-101 3 2 147 c1 92 -2 155 -9 167 -10 20 -20 21 -160 21 l-150 0 0 57 c0 52 3
59 35 89 30 27 35 38 35 78 0 86 -82 139 -157 100z m72 -94 c0 -18 -6 -26 -21
-28 -26 -4 -40 24 -23 45 18 21 44 11 44 -17z m595 15 c17 -20 5 -45 -20 -45
-23 0 -35 22 -26 45 7 19 30 19 46 0z m285 -15 c0 -18 -6 -26 -23 -28 -27 -4
-40 22 -22 44 19 22 45 13 45 -16z m594 16 c15 -18 3 -46 -20 -46 -22 0 -34
22 -25 45 7 19 30 19 45 1z m-2021 -535 c21 -13 10 -46 -16 -49 -27 -4 -40 22
-22 43 14 17 20 18 38 6z m2562 -6 c18 -21 5 -47 -22 -43 -26 3 -37 36 -16 49
18 12 24 11 38 -6z m-1700 -66 c0 -5 -11 -9 -25 -9 -27 0 -32 9 -13 28 12 12
38 -1 38 -19z m275 11 c18 -20 17 -20 -14 -20 -29 0 -31 2 -21 20 6 11 12 20
14 20 2 0 11 -9 21 -20z m285 0 c10 -18 8 -20 -21 -20 -31 0 -32 0 -14 20 10
11 19 20 21 20 2 0 8 -9 14 -20z m290 -11 c0 -5 -11 -9 -25 -9 -27 0 -32 9
-13 28 12 12 38 -1 38 -19z m180 -689 l0 -630 -630 0 -630 0 0 630 c0 346 0
631 0 633 0 1 284 1 630 0 l630 -3 0 -630z m-1310 423 c0 -36 0 -36 -20 -18
-19 17 -19 19 -4 37 23 24 24 24 24 -19z m1386 12 c7 -18 -14 -47 -27 -39 -5
3 -9 16 -9 30 0 27 27 34 36 9z m-1958 -293 c4 -28 -24 -40 -45 -19 -21 21 -9
49 19 45 15 -2 24 -11 26 -26z m572 -3 c0 -27 -2 -30 -15 -19 -24 20 -19 39
13 49 1 1 2 -13 2 -30z m1386 16 c7 -18 -14 -47 -27 -39 -5 3 -9 16 -9 30 0
27 27 34 36 9z m600 0 c7 -18 -13 -45 -33 -45 -17 0 -27 24 -19 45 7 20 45 19
52 0z m-2561 -295 c0 -18 -6 -26 -23 -28 -27 -4 -40 22 -22 44 19 22 45 13 45
-16z m575 0 c0 -22 -4 -28 -15 -24 -18 7 -19 26 -3 42 17 17 18 16 18 -18z
m1387 -14 c-4 -9 -11 -16 -17 -16 -15 0 -24 26 -16 47 6 15 8 15 23 1 9 -9 13
-24 10 -32z m593 29 c17 -20 5 -45 -20 -45 -23 0 -35 22 -26 45 7 19 30 19 46
0z m-1980 -301 c0 -31 -2 -35 -15 -24 -18 15 -19 32 -3 48 17 17 18 16 18 -24z
m1386 11 c7 -18 -14 -47 -27 -39 -5 3 -9 16 -9 30 0 27 27 34 36 9z m-1108
-277 c-3 -7 -13 -13 -23 -13 -10 0 -20 6 -22 13 -3 7 5 12 22 12 17 0 25 -5
23 -12z m282 -3 c-7 -8 -18 -15 -25 -15 -7 0 -15 7 -19 15 -4 11 2 15 26 15
26 0 29 -2 18 -15z m284 0 c-4 -8 -12 -15 -19 -15 -7 0 -18 7 -25 15 -11 13
-8 15 18 15 24 0 30 -4 26 -15z m284 3 c-3 -7 -13 -13 -23 -13 -10 0 -20 6
-22 13 -3 7 5 12 22 12 17 0 25 -5 23 -12z m-1700 -44 c4 -27 -26 -40 -46 -20
-21 20 -8 48 20 44 14 -2 24 -11 26 -24z m2559 10 c8 -21 -19 -46 -40 -38 -17
6 -23 35 -10 47 12 13 44 7 50 -9z m-2019 -552 c4 -28 -24 -41 -44 -20 -20 20
-7 50 20 46 13 -2 22 -12 24 -26z m598 13 c7 -18 -13 -45 -33 -45 -17 0 -27
24 -19 45 7 20 45 19 52 0z m282 -13 c4 -28 -24 -40 -45 -19 -21 21 -9 49 19
45 15 -2 24 -11 26 -26z m596 12 c7 -19 -10 -44 -31 -44 -17 0 -27 24 -19 45
7 20 42 19 50 -1z"/>
<path d="M1005 1988 c-3 -7 -4 -231 -3 -498 l3 -485 495 0 495 0 0 495 0 495
-493 3 c-389 2 -494 0 -497 -10z m915 -488 l0 -420 -420 0 -420 0 0 420 0 420
420 0 420 0 0 -420z"/>
<path d="M1791 1737 c-8 -10 -11 -56 -9 -147 3 -114 6 -134 21 -144 12 -8 22
-8 35 0 15 10 17 29 17 155 l0 144 -26 3 c-14 2 -31 -3 -38 -11z"/>
</g>
</svg>
