<svg version="1.0" xmlns="http://www.w3.org/2000/svg"
 width="300.000000pt" height="300.000000pt" viewBox="0 0 300.000000 300.000000"
 preserveAspectRatio="xMidYMid meet">
<g transform="translate(0.000000,300.000000) scale(0.100000,-0.100000)"
fill="#b0adad" stroke="none">
<path d="M1266 2984 c-14 -13 -16 -48 -16 -232 0 -119 4 -222 8 -228 4 -6 15
-15 26 -21 15 -8 -24 -34 -245 -163 -145 -84 -298 -173 -339 -196 -74 -44 -75
-44 -172 -44 -74 0 -100 -4 -112 -16 -14 -13 -16 -48 -16 -232 0 -119 5 -224
10 -232 6 -10 31 -17 71 -20 l61 -5 -158 -197 -158 -198 -97 0 c-75 0 -101 -4
-113 -16 -24 -23 -24 -445 0 -468 12 -12 36 -16 100 -16 l84 0 0 -100 0 -100
-84 0 c-64 0 -88 -4 -100 -16 -24 -23 -24 -445 0 -468 23 -24 445 -24 468 0
14 13 16 49 16 233 0 262 5 251 -118 251 l-82 0 0 100 0 100 83 0 c122 0 117
-10 117 251 0 118 -5 221 -10 229 -6 10 -31 17 -71 20 l-61 5 142 178 c78 97
146 177 150 177 4 0 72 -80 150 -177 l142 -178 -61 -5 c-40 -3 -65 -10 -71
-20 -5 -8 -10 -112 -10 -231 0 -260 -5 -249 118 -249 l82 0 0 -100 0 -100 -83
0 c-122 0 -117 11 -117 -253 0 -183 2 -218 16 -231 23 -24 445 -24 468 0 24
23 24 445 0 468 -12 12 -36 16 -100 16 l-84 0 0 100 0 100 84 0 c64 0 88 4
100 16 24 23 24 445 0 468 -12 12 -38 16 -113 16 l-97 0 -158 197 -158 198 61
5 c40 3 65 10 71 20 11 18 13 440 2 457 -4 7 -18 16 -31 21 -21 7 13 30 285
189 170 99 319 185 332 192 21 11 51 -4 352 -181 274 -161 325 -194 307 -201
-12 -4 -25 -13 -29 -20 -11 -17 -9 -439 2 -457 6 -10 31 -17 71 -20 l61 -5
-158 -197 -158 -198 -97 0 c-75 0 -101 -4 -113 -16 -24 -23 -24 -445 0 -468
12 -12 36 -16 100 -16 l84 0 0 -100 0 -100 -84 0 c-64 0 -88 -4 -100 -16 -24
-23 -24 -445 0 -468 23 -24 445 -24 468 0 14 13 16 49 16 233 0 262 5 251
-118 251 l-82 0 0 100 0 100 84 0 c64 0 88 4 100 16 14 13 16 48 16 232 0 119
-5 224 -10 232 -6 10 -31 17 -71 20 l-61 5 142 178 c78 97 146 177 150 177 4
0 72 -80 150 -177 l142 -178 -61 -5 c-40 -3 -65 -10 -71 -20 -5 -8 -10 -112
-10 -231 0 -260 -5 -249 118 -249 l82 0 0 -100 0 -100 -83 0 c-122 0 -117 11
-117 -253 0 -183 2 -218 16 -231 23 -24 445 -24 468 0 24 23 24 445 0 468 -12
12 -36 16 -100 16 l-84 0 0 100 0 100 84 0 c64 0 88 4 100 16 24 23 24 445 0
468 -12 12 -38 16 -113 16 l-97 0 -158 198 -158 197 61 5 c40 3 65 10 71 20 5
8 10 113 10 232 0 184 -2 219 -16 232 -12 13 -38 16 -118 16 l-102 0 -264 156
c-146 86 -296 174 -334 196 -61 36 -67 42 -50 51 10 6 22 15 26 21 4 6 8 109
8 228 0 184 -2 219 -16 232 -13 14 -49 16 -234 16 -185 0 -221 -2 -234 -16z
m384 -234 l0 -150 -150 0 -150 0 0 150 0 150 150 0 150 0 0 -150z m-850 -900
l0 -150 -150 0 -150 0 0 150 0 150 150 0 150 0 0 -150z m1700 0 l0 -150 -150
0 -150 0 0 150 0 150 150 0 150 0 0 -150z m-2100 -900 l0 -150 -150 0 -150 0
0 150 0 150 150 0 150 0 0 -150z m800 0 l0 -150 -150 0 -150 0 0 150 0 150
150 0 150 0 0 -150z m900 0 l0 -150 -150 0 -150 0 0 150 0 150 150 0 150 0 0
-150z m800 0 l0 -150 -150 0 -150 0 0 150 0 150 150 0 150 0 0 -150z m-2500
-700 l0 -150 -150 0 -150 0 0 150 0 150 150 0 150 0 0 -150z m800 0 l0 -150
-150 0 -150 0 0 150 0 150 150 0 150 0 0 -150z m900 0 l0 -150 -150 0 -150 0
0 150 0 150 150 0 150 0 0 -150z m800 0 l0 -150 -150 0 -150 0 0 150 0 150
150 0 150 0 0 -150z"/>
</g>
</svg>
